<?xml version="1.0" encoding="UTF-8"?>
<svg xmlns="http://www.w3.org/2000/svg" width="1786" height="553" viewBox="0 0 1786 553" version="1.1">
  <title>Jane Distribuidora - vetor branco monocromático</title>
  <path fill="#ffffff" fill-rule="evenodd" clip-rule="evenodd" d="M1438,367 L1438,524 L1450,525 L1451,528 L1454,530 L1470,531 L1471,530 L1483,529 L1484,525 L1486,523 L1486,482 L1487,481 L1489,482 L1489,484 L1492,488 L1493,488 L1494,485 L1498,488 L1499,491 L1497,492 L1499,494 L1500,493 L1502,494 L1503,501 L1504,502 L1506,500 L1508,502 L1508,505 L1511,507 L1519,517 L1523,524 L1533,530 L1536,529 L1537,530 L1548,530 L1549,531 L1554,531 L1555,530 L1560,530 L1561,531 L1562,530 L1569,530 L1570,531 L1573,529 L1579,528 L1576,527 L1577,525 L1582,525 L1583,524 L1589,525 L1593,530 L1595,529 L1603,531 L1608,531 L1609,530 L1613,531 L1614,530 L1626,529 L1627,525 L1632,525 L1634,523 L1635,517 L1640,508 L1643,508 L1648,503 L1653,503 L1654,502 L1656,503 L1661,502 L1670,502 L1671,503 L1673,502 L1700,502 L1705,503 L1714,523 L1716,525 L1718,525 L1720,527 L1720,529 L1723,531 L1737,531 L1738,530 L1745,531 L1749,529 L1754,529 L1756,525 L1760,525 L1765,523 L1765,520 L1757,503 L1754,493 L1751,489 L1749,482 L1747,480 L1746,475 L1742,468 L1737,454 L1735,452 L1732,442 L1727,433 L1722,419 L1711,396 L1710,391 L1703,377 L1701,369 L1698,366 L1646,366 L1643,369 L1635,390 L1632,395 L1631,400 L1627,407 L1625,415 L1619,427 L1618,432 L1616,434 L1610,452 L1603,466 L1602,471 L1582,517 L1578,514 L1561,492 L1559,491 L1551,480 L1545,474 L1539,465 L1535,462 L1537,459 L1539,459 L1541,461 L1551,458 L1554,454 L1553,452 L1554,449 L1559,447 L1558,445 L1562,440 L1567,424 L1566,401 L1562,391 L1558,387 L1557,384 L1552,379 L1541,372 L1533,369 L1522,368 L1516,366 L1440,366 Z M1668,431 L1674,436 L1675,434 L1677,435 L1680,445 L1683,450 L1684,454 L1683,456 L1667,457 L1658,455 Z M1486,409 L1487,408 L1489,409 L1492,408 L1505,408 L1507,410 L1512,411 L1514,410 L1516,413 L1515,421 L1507,429 L1487,432 L1486,431 Z M1082,366 L1081,368 L1081,523 L1084,525 L1087,525 L1091,531 L1111,531 L1112,532 L1151,532 L1153,531 L1158,532 L1173,527 L1177,528 L1187,523 L1190,523 L1201,513 L1205,513 L1207,511 L1207,509 L1213,503 L1217,501 L1218,499 L1217,496 L1222,490 L1229,477 L1233,464 L1233,456 L1234,455 L1234,436 L1231,426 L1231,422 L1225,408 L1215,394 L1205,384 L1195,377 L1176,369 L1166,367 L1159,367 L1158,366 Z M1133,412 L1153,412 L1158,415 L1163,415 L1168,419 L1174,419 L1179,427 L1183,444 L1180,462 L1178,468 L1175,472 L1164,481 L1161,481 L1156,484 L1146,484 L1145,485 L1134,485 L1132,483 L1132,471 L1131,470 L1131,452 L1132,451 L1131,450 L1131,428 L1132,426 L1131,425 L1131,419 Z M1018,366 L1017,367 L1017,523 L1020,525 L1024,525 L1027,529 L1036,529 L1038,531 L1051,530 L1057,528 L1058,524 L1065,524 L1065,367 L1063,366 Z M851,367 L851,474 L855,490 L860,500 L865,506 L866,510 L867,509 L869,510 L868,513 L874,519 L879,522 L881,525 L889,528 L891,530 L896,530 L899,533 L909,534 L910,535 L930,535 L931,536 L949,535 L958,531 L964,531 L966,529 L973,527 L978,523 L980,523 L982,518 L986,514 L985,511 L993,502 L998,492 L1001,482 L1001,473 L1002,472 L1002,367 L1001,366 L953,366 L952,367 L952,463 L950,472 L945,480 L942,483 L931,487 L921,487 L912,484 L907,479 L903,469 L903,463 L902,462 L902,367 L901,366 L853,366 Z M709,366 L708,367 L708,523 L716,526 L718,525 L720,528 L726,529 L728,531 L739,531 L740,532 L745,532 L746,531 L749,532 L784,531 L786,532 L787,531 L803,530 L811,528 L813,526 L821,523 L825,518 L835,510 L834,507 L842,494 L845,481 L843,464 L838,454 L827,443 L816,437 L816,435 L825,425 L829,414 L829,396 L827,393 L826,387 L822,381 L817,376 L808,370 L791,366 Z M757,469 L760,466 L769,465 L771,467 L778,467 L782,470 L788,470 L792,473 L792,476 L790,481 L784,486 L775,488 L761,488 L757,486 Z M757,424 L757,408 L762,406 L771,406 L772,407 L781,406 L782,407 L783,414 L777,422 L769,425 L758,425 Z M500,368 L500,522 L502,525 L505,526 L505,528 L507,530 L519,530 L520,531 L521,530 L544,529 L545,528 L545,526 L549,522 L549,517 L548,516 L549,499 L548,497 L549,496 L549,484 L550,483 L556,488 L558,492 L563,495 L563,498 L565,498 L569,501 L579,513 L583,520 L588,525 L591,526 L590,528 L592,530 L609,531 L610,532 L617,532 L618,531 L622,532 L629,530 L637,531 L639,529 L641,529 L641,526 L644,524 L651,525 L654,529 L679,530 L685,528 L686,525 L694,524 L694,367 L693,366 L646,366 L645,371 L645,516 L644,517 L642,516 L613,479 L611,478 L597,461 L598,459 L607,460 L613,458 L615,454 L614,451 L619,448 L628,427 L629,410 L627,400 L623,391 L618,384 L609,376 L597,370 L579,366 L502,366 Z M549,410 L554,409 L556,407 L566,407 L571,411 L574,412 L576,411 L578,414 L577,420 L569,429 L561,431 L550,431 L548,426 L549,424 L548,422 Z M375,366 L373,368 L373,376 L372,377 L373,381 L372,384 L372,402 L373,404 L376,405 L378,409 L384,409 L388,411 L396,411 L397,412 L407,410 L409,411 L409,523 L415,525 L420,530 L424,531 L425,530 L428,531 L441,531 L451,528 L450,527 L451,525 L457,525 L459,521 L459,513 L458,512 L459,508 L458,507 L459,504 L458,502 L458,494 L459,493 L458,491 L459,489 L459,482 L458,481 L459,478 L459,460 L458,459 L459,454 L458,453 L459,451 L458,449 L459,415 L466,412 L483,411 L487,410 L489,408 L488,406 L492,402 L492,368 L490,366 Z M198,366 L198,389 L197,390 L198,391 L197,393 L197,521 L198,524 L204,525 L207,529 L211,530 L215,529 L217,530 L238,529 L239,528 L236,527 L237,525 L247,524 L247,367 L246,366 Z M39,366 L38,367 L38,524 L46,525 L47,529 L51,529 L56,531 L65,531 L67,530 L72,532 L73,531 L81,531 L82,532 L84,531 L88,532 L105,532 L108,531 L110,532 L146,523 L154,515 L161,512 L167,506 L169,502 L172,501 L172,499 L170,497 L177,490 L182,481 L189,460 L189,432 L187,428 L186,420 L177,402 L170,393 L163,386 L151,377 L127,368 L122,368 L115,366 Z M91,411 L98,411 L99,412 L103,411 L108,412 L110,414 L118,415 L123,418 L127,417 L131,421 L135,430 L137,439 L137,454 L135,459 L135,463 L130,472 L124,478 L110,484 L88,485 L86,483 L86,414 Z M1290,369 L1270,380 L1255,394 L1247,406 L1239,426 L1239,431 L1238,432 L1238,457 L1244,479 L1250,490 L1255,497 L1265,507 L1271,511 L1270,513 L1268,513 L1268,515 L1272,516 L1278,522 L1290,526 L1295,530 L1300,532 L1316,534 L1317,535 L1318,534 L1320,535 L1323,534 L1325,535 L1339,535 L1340,534 L1349,535 L1369,531 L1371,529 L1376,528 L1387,523 L1397,513 L1400,513 L1404,509 L1406,505 L1406,502 L1414,492 L1421,479 L1426,464 L1426,457 L1427,456 L1426,427 L1423,417 L1414,400 L1406,390 L1396,381 L1384,373 L1368,366 L1348,362 L1320,362 L1314,364 L1307,364 Z M1320,413 L1331,412 L1332,411 L1346,413 L1351,416 L1355,416 L1364,423 L1367,423 L1370,427 L1374,440 L1374,451 L1372,455 L1372,458 L1367,468 L1358,477 L1351,481 L1341,484 L1323,484 L1319,483 L1307,477 L1298,468 L1294,460 L1291,447 L1291,440 L1294,429 L1297,425 L1302,424 L1304,420 L1306,420 L1310,417 L1313,417 Z M305,362 L287,367 L277,372 L266,381 L260,391 L256,405 L256,420 L258,424 L258,428 L264,439 L270,446 L270,448 L271,449 L274,448 L277,453 L281,456 L282,459 L290,459 L292,461 L307,468 L310,468 L311,470 L321,471 L323,475 L328,475 L330,477 L330,480 L323,487 L312,488 L293,483 L291,481 L279,476 L274,472 L270,471 L267,474 L267,476 L256,495 L251,507 L260,514 L260,517 L264,521 L267,522 L269,525 L273,527 L276,527 L278,529 L281,528 L285,530 L289,530 L291,532 L301,534 L334,534 L336,532 L343,531 L351,526 L354,526 L358,523 L360,523 L359,517 L363,514 L365,514 L376,499 L381,486 L381,463 L377,453 L372,446 L363,437 L360,436 L357,433 L341,426 L332,424 L324,420 L314,417 L307,411 L306,408 L308,406 L319,406 L320,405 L339,407 L344,409 L346,407 L348,407 L350,409 L353,408 L363,387 L365,385 L368,376 L367,373 L362,370 L349,365 L339,364 L333,362 Z M12,167 L12,170 L15,176 L25,190 L37,204 L54,220 L73,235 L78,237 L87,244 L111,258 L122,263 L124,265 L124,268 L127,270 L130,270 L131,268 L135,268 L139,271 L137,273 L139,275 L141,274 L139,273 L141,271 L154,277 L153,279 L148,279 L149,280 L155,280 L157,282 L161,283 L161,282 L154,279 L155,277 L157,277 L160,279 L173,283 L174,285 L172,286 L177,288 L176,290 L179,291 L184,290 L187,291 L182,289 L183,287 L186,287 L199,291 L200,292 L199,295 L201,296 L203,295 L212,299 L211,297 L212,295 L216,295 L228,299 L227,301 L219,300 L223,302 L230,302 L233,304 L240,304 L247,306 L250,306 L248,304 L252,303 L256,304 L259,308 L265,309 L264,308 L265,306 L273,307 L274,309 L270,311 L272,312 L279,312 L276,311 L275,309 L276,308 L281,308 L287,310 L286,312 L282,312 L281,311 L282,312 L287,312 L289,314 L290,313 L295,313 L306,317 L309,316 L316,318 L317,317 L319,318 L325,317 L327,319 L338,317 L340,319 L351,319 L352,320 L356,318 L357,315 L360,316 L365,314 L360,305 L341,284 L342,280 L353,269 L352,265 L302,265 L301,264 L298,265 L297,264 L278,264 L277,263 L261,263 L251,261 L240,261 L239,260 L231,260 L230,259 L222,259 L221,258 L201,256 L197,254 L192,254 L147,244 L144,242 L137,241 L128,237 L111,232 L109,230 L95,225 L75,215 L60,205 L55,203 L38,191 Z M298,312 L299,311 L303,311 L304,313 L303,314 L299,314 Z M235,301 L236,300 L238,300 L239,301 L244,301 L246,302 L247,304 L246,305 L244,304 L237,304 L235,302 Z M228,300 L229,299 L233,299 L234,301 L233,302 L229,302 Z M125,266 L127,265 L128,266 L130,266 L131,268 L130,269 L128,269 L126,268 Z M13,116 L14,121 L29,140 L59,168 L66,172 L74,179 L98,194 L111,200 L113,202 L111,204 L118,207 L114,205 L115,203 L117,203 L126,208 L131,209 L133,211 L142,213 L144,215 L152,217 L158,220 L165,221 L167,223 L166,225 L168,223 L170,223 L171,227 L173,227 L171,226 L172,224 L178,225 L181,227 L180,229 L175,228 L178,230 L182,230 L181,228 L183,227 L188,228 L191,230 L198,231 L199,232 L198,234 L200,232 L204,232 L215,236 L228,237 L232,239 L245,240 L249,242 L255,242 L262,244 L268,244 L278,247 L284,247 L285,250 L286,248 L298,248 L314,251 L322,251 L323,253 L321,254 L326,254 L327,252 L332,252 L333,255 L335,255 L333,254 L334,252 L338,253 L339,255 L341,253 L366,254 L391,226 L395,223 L395,221 L400,217 L407,208 L407,205 L285,204 L284,203 L274,203 L264,201 L250,201 L249,200 L240,200 L239,199 L229,199 L221,197 L212,197 L200,194 L179,192 L172,189 L157,187 L153,185 L145,184 L142,182 L131,180 L125,177 L118,176 L99,168 L96,168 L94,166 L87,164 L72,156 L70,156 L42,139 L27,128 L17,118 Z M11,60 L11,63 L15,70 L39,96 L59,112 L79,125 L112,141 L111,143 L106,142 L105,141 L111,144 L114,142 L124,146 L125,148 L123,149 L126,148 L133,149 L138,152 L154,156 L156,158 L155,160 L157,160 L159,158 L172,161 L175,163 L174,165 L175,166 L178,166 L180,168 L185,168 L189,171 L194,171 L192,168 L195,167 L219,173 L226,173 L230,175 L249,177 L250,179 L248,180 L253,182 L254,181 L250,180 L251,178 L261,180 L268,180 L278,183 L288,183 L292,184 L293,186 L295,184 L312,185 L313,186 L312,188 L303,188 L326,190 L328,192 L332,191 L339,193 L343,192 L364,193 L363,192 L364,190 L375,190 L376,191 L396,191 L398,193 L397,195 L403,195 L406,192 L417,192 L418,193 L423,192 L423,142 L371,142 L370,141 L303,140 L302,139 L292,139 L291,138 L273,138 L272,137 L245,136 L244,135 L235,135 L234,134 L204,132 L199,130 L181,129 L180,128 L174,128 L171,126 L166,125 L158,125 L153,123 L136,120 L132,118 L119,116 L116,114 L113,114 L84,104 L77,100 L66,96 L44,84 L30,75 L20,66 Z M321,188 L322,187 L327,187 L328,189 L327,190 L322,190 Z M1441,25 L1438,36 L1439,305 L1446,316 L1455,320 L1452,323 L1454,326 L1473,328 L1517,328 L1535,325 L1538,320 L1542,319 L1543,304 L1547,293 L1553,284 L1557,286 L1563,279 L1584,270 L1600,268 L1628,272 L1633,274 L1635,278 L1641,278 L1643,281 L1646,280 L1648,282 L1647,285 L1649,285 L1650,288 L1653,288 L1656,293 L1663,317 L1669,321 L1669,324 L1673,326 L1709,328 L1742,326 L1753,327 L1762,326 L1768,323 L1766,321 L1773,317 L1773,305 L1757,231 L1751,212 L1750,202 L1746,189 L1740,181 L1666,156 L1643,132 L1574,49 L1553,32 L1536,25 L1521,22 L1479,18 L1453,18 L1445,21 Z M1480,63 L1487,60 L1499,60 L1500,61 L1515,62 L1524,65 L1537,67 L1538,70 L1541,71 L1543,74 L1548,75 L1552,81 L1555,80 L1561,86 L1559,88 L1561,91 L1564,90 L1565,91 L1564,93 L1566,92 L1570,96 L1570,101 L1572,103 L1573,107 L1578,107 L1581,110 L1581,116 L1584,119 L1589,119 L1591,121 L1591,123 L1593,124 L1593,127 L1596,132 L1601,137 L1604,138 L1604,142 L1605,143 L1607,141 L1608,145 L1610,145 L1614,149 L1615,152 L1614,155 L1608,158 L1487,158 L1484,157 L1482,155 L1480,149 Z M1233,18 L1232,320 L1235,320 L1236,323 L1241,326 L1274,328 L1395,327 L1409,325 L1412,323 L1412,320 L1420,320 L1422,318 L1422,248 L1360,248 L1322,246 L1323,210 L1398,209 L1407,207 L1408,203 L1411,204 L1415,202 L1415,130 L1323,130 L1322,95 L1352,95 L1364,93 L1398,94 L1408,91 L1411,93 L1411,91 L1407,90 L1408,88 L1418,87 L1418,19 Z M561,316 L561,319 L570,325 L581,327 L620,328 L629,326 L646,326 L651,323 L655,316 L662,292 L672,269 L780,268 L784,276 L783,279 L786,280 L800,318 L804,321 L804,323 L814,327 L882,327 L891,324 L892,320 L903,320 L903,323 L910,327 L943,328 L977,325 L978,321 L982,320 L982,153 L983,143 L985,142 L987,144 L987,150 L992,150 L995,159 L1000,165 L1001,163 L1004,165 L1005,171 L1009,175 L1010,179 L1013,182 L1016,181 L1016,185 L1021,187 L1027,193 L1028,203 L1034,203 L1039,209 L1038,212 L1043,214 L1053,227 L1053,230 L1056,231 L1071,250 L1071,256 L1077,263 L1081,264 L1081,267 L1085,269 L1085,273 L1090,275 L1106,295 L1105,298 L1107,297 L1114,305 L1112,307 L1115,310 L1117,309 L1128,321 L1128,325 L1143,328 L1172,328 L1176,326 L1190,326 L1198,318 L1198,20 L1196,18 L1112,19 L1112,168 L1110,169 L1007,51 L981,19 L898,18 L898,314 L896,315 L850,208 L774,20 L772,18 L675,18 L671,23 L660,51 L654,71 Z M722,121 L724,122 L723,126 L725,126 L724,123 L725,121 L729,125 L743,167 L746,172 L748,180 L750,182 L752,192 L749,194 L699,194 L698,193 L699,188 L701,185 L702,178 L706,170 L706,167 L709,161 L710,155 L713,149 L714,143 Z M554,18 L468,18 L467,19 L467,234 L466,235 L466,241 L460,251 L454,254 L447,254 L437,250 L419,232 L417,232 L413,235 L369,282 L370,287 L384,303 L383,306 L388,310 L392,316 L395,317 L398,321 L400,321 L410,327 L418,329 L421,331 L430,331 L431,332 L443,331 L451,333 L486,330 L502,321 L508,320 L519,310 L521,310 L523,308 L524,304 L523,301 L529,296 L538,284 L544,271 L546,269 L547,263 L550,258 L554,241 L555,203 L556,202 L555,200 L556,198 L555,193 L555,176 L556,175 L556,150 L555,149 L556,144 L556,117 L555,116 L556,114 L556,89 L555,88 L556,85 L556,77 L555,76 L555,64 L556,63 L555,62 L556,57 L555,56 L556,54 L555,49 L556,46 L555,45 L555,40 L556,39 L555,34 L556,31 L555,27 L556,26 L556,20 Z M13,10 L13,12 L18,20 L34,36 L50,49 L53,50 L73,64 L106,80 L109,80 L116,84 L122,85 L127,88 L130,88 L136,91 L145,93 L146,94 L145,96 L152,95 L163,98 L164,102 L171,103 L177,107 L182,106 L189,107 L190,105 L193,105 L198,107 L196,109 L198,109 L199,107 L202,107 L203,110 L205,108 L218,109 L221,111 L222,114 L225,114 L224,113 L225,111 L229,111 L243,114 L250,114 L251,116 L248,117 L253,117 L254,115 L257,115 L258,116 L264,116 L266,118 L266,120 L282,121 L284,119 L285,121 L287,119 L290,120 L293,123 L307,124 L308,125 L309,124 L314,124 L310,124 L309,123 L310,121 L318,121 L323,123 L322,125 L324,125 L325,123 L337,123 L338,125 L334,126 L338,126 L339,124 L341,124 L342,127 L349,127 L350,128 L354,127 L355,125 L357,125 L359,128 L362,128 L363,125 L366,128 L373,128 L371,127 L372,125 L380,126 L381,129 L384,129 L383,127 L386,126 L387,129 L389,130 L394,129 L395,127 L416,127 L417,128 L423,127 L423,119 L424,118 L423,116 L424,114 L423,77 L309,76 L308,75 L299,75 L298,74 L262,73 L261,72 L249,72 L248,71 L246,72 L237,70 L215,69 L214,68 L205,68 L199,66 L174,64 L170,62 L151,60 L141,57 L136,57 L131,55 L112,52 L109,50 L97,48 L90,45 L83,44 L71,40 L66,37 L58,35 L42,28 L40,26 L25,19 Z M346,125 L347,124 L351,124 L352,126 L351,127 L347,127 Z M297,121 L298,120 L303,120 L304,122 L303,123 L298,123 Z"/>
</svg>
